<svg xmlns="http://www.w3.org/2000/svg" xmlns:xlink="http://www.w3.org/1999/xlink" width="1920" height="1024" version="1.1" viewBox="0 0 1920 1024"><title>Background and Stripes</title><desc>Created with Sketch.</desc><defs><linearGradient id="linearGradient-1" x1="0%" x2="113.817%" y1="50%" y2="50%"><stop offset="0%" stop-color="#F59D2A"/><stop offset="1%" stop-color="#F59A2C"/><stop offset="21%" stop-color="#EE6A4B"/><stop offset="36%" stop-color="#EA4D5F"/><stop offset="45%" stop-color="#E94266"/><stop offset="54%" stop-color="#D54F76"/><stop offset="74%" stop-color="#A0719F"/><stop offset="100%" stop-color="#52A3DB"/></linearGradient><path id="path-2" d="M1497.08184,1023 L1413.76949,1023 L1970,467.082708 L1970,550.348143 L1747.2718,772.950924 L1497.08184,1023 Z M1237.28591,1023 L1153.97357,1023 L1970,207.433075 L1970,290.698512 L1308.46073,951.865267 L1237.28591,1023 Z M977.1947,1023 L893.882349,1023 L1917.45873,-5.68434189e-13 L1970,-2.27373675e-13 L1970,30.7537554 L977.1947,1023 Z M716.514745,1023 L633.202393,1023 L1656.77878,-2.27373675e-13 L1740.09113,-2.01923225e-13 L716.514745,1023 Z M455.834791,1023 L372.522439,1023 L1396.09882,-2.27373675e-13 L1479.41117,-1.73066477e-13 L455.834791,1023 Z M198.100371,1023 L114.787781,1023 L1138.36416,-3.41060513e-13 L1221.67675,-1.44535795e-13 L198.100371,1023 Z"/><filter id="filter-4" width="109%" height="109%" x="-4.5%" y="-4.5%" filterUnits="objectBoundingBox"><feGaussianBlur in="SourceGraphic" stdDeviation="0"/></filter><filter id="filter-5" width="105.8%" height="105.8%" x="-2.9%" y="-2.9%" filterUnits="objectBoundingBox"><feGaussianBlur in="SourceGraphic" stdDeviation="0"/></filter><filter id="filter-6" width="104.3%" height="104.3%" x="-2.1%" y="-2.1%" filterUnits="objectBoundingBox"><feGaussianBlur in="SourceGraphic" stdDeviation="0"/></filter><filter id="filter-7" width="104%" height="104.1%" x="-2.1%" y="-2.1%" filterUnits="objectBoundingBox"><feGaussianBlur in="SourceGraphic" stdDeviation="0"/></filter><filter id="filter-8" width="104%" height="104.1%" x="-2%" y="-2.1%" filterUnits="objectBoundingBox"><feGaussianBlur in="SourceGraphic" stdDeviation="0"/></filter><filter id="filter-9" width="104%" height="104.1%" x="-2%" y="-2.1%" filterUnits="objectBoundingBox"><feGaussianBlur in="SourceGraphic" stdDeviation="0"/></filter></defs><g id="Background-and-Stripes" fill="none" fill-rule="evenodd" stroke="none" stroke-width="1"><rect id="Rectangle" width="1922" height="1023" x="0" y="0" fill="#EDEBEB" fill-rule="nonzero"/><mask id="mask-3" fill="#fff"><use xlink:href="#path-2"/></mask><use id="Combined-Shape" fill="url(#linearGradient-1)" fill-opacity=".5" fill-rule="nonzero" xlink:href="#path-2"/><g id="Line" stroke="#FFF" stroke-linecap="square" stroke-width="30"><path d="M1303.02503,1024 L1772,555.025033" filter="url(#filter-4)" transform="translate(148.000000, 0.000000)"/><path d="M1045.02503,1024 L1772,297.025033" filter="url(#filter-5)" transform="translate(148.000000, 0.000000)"/><path d="M786.025033,1024 L1772,38.0250327" filter="url(#filter-6)" transform="translate(148.000000, 0.000000)"/><path d="M522.025037,1024 L1546.02504,0" filter="url(#filter-7)" transform="translate(148.000000, 0.000000)"/><path d="M261.55292,1024 L1285.55292,0" filter="url(#filter-8)" transform="translate(148.000000, 0.000000)"/><path d="M0.552920204,1024 L1024.55292,0" filter="url(#filter-9)" transform="translate(148.000000, 0.000000)"/></g></g></svg>